<svg data-v-fde0c5aa="" xmlns="http://www.w3.org/2000/svg" viewBox="0 0 300 300" class="iconAboveSlogan"><!----><defs data-v-fde0c5aa=""><linearGradient data-v-fde0c5aa="" gradientTransform="rotate(25)" id="b58e90f0-058c-4ee6-8987-a29c1e887263" x1="0%" y1="0%" x2="100%" y2="0%"><stop data-v-fde0c5aa="" offset="0%" stop-color="#0067F5" stop-opacity="1"></stop><stop data-v-fde0c5aa="" offset="100%" stop-color="#0DC5E7" stop-opacity="1"></stop></linearGradient></defs><rect data-v-fde0c5aa="" fill="url(#b58e90f0-058c-4ee6-8987-a29c1e887263)" x="0" y="0" width="300px" height="300px" class="logo-background-square"></rect><defs data-v-fde0c5aa=""><!----></defs><g data-v-fde0c5aa="" id="56a7fc10-7e8e-49f3-9f4d-a2de8bb2ec2a" fill="#ffffff" transform="matrix(7.4344733218143,0,0,7.4344733218143,18.484166511701055,148.49042013380682)"><path d="M7.81 7.48L7.81 7.48L7.81 7.48Q7.81 5.43 7.11 4.32L7.11 4.32L7.11 4.32Q6.41 3.21 5.14 3.21L5.14 3.21L5.14 3.21Q3.86 3.21 3.17 4.32L3.17 4.32L3.17 4.32Q2.48 5.43 2.48 7.48L2.48 7.48L2.48 7.48Q2.48 9.52 3.17 10.63L3.17 10.63L3.17 10.63Q3.86 11.75 5.14 11.75L5.14 11.75L5.14 11.75Q6.41 11.75 7.11 10.63L7.11 10.63L7.11 10.63Q7.81 9.52 7.81 7.48ZM0.52 7.48L0.52 7.48L0.52 7.48Q0.52 6.44 0.85 5.54L0.85 5.54L0.85 5.54Q1.18 4.65 1.79 3.99L1.79 3.99L1.79 3.99Q2.39 3.33 3.24 2.95L3.24 2.95L3.24 2.95Q4.09 2.58 5.14 2.58L5.14 2.58L5.14 2.58Q6.19 2.58 7.04 2.95L7.04 2.95L7.04 2.95Q7.88 3.33 8.48 3.99L8.48 3.99L8.48 3.99Q9.09 4.65 9.42 5.54L9.42 5.54L9.42 5.54Q9.74 6.44 9.74 7.48L9.74 7.48L9.74 7.48Q9.74 8.51 9.42 9.41L9.42 9.41L9.42 9.41Q9.09 10.30 8.48 10.96L8.48 10.96L8.48 10.96Q7.88 11.62 7.04 12.00L7.04 12.00L7.04 12.00Q6.19 12.38 5.14 12.38L5.14 12.38L5.14 12.38Q4.09 12.38 3.24 12.00L3.24 12.00L3.24 12.00Q2.39 11.62 1.79 10.96L1.79 10.96L1.79 10.96Q1.18 10.30 0.85 9.41L0.85 9.41L0.85 9.41Q0.52 8.51 0.52 7.48ZM14.60 5.38L14.60 5.38L14.60 5.38Q15.22 5.38 15.60 5.66L15.60 5.66L15.60 5.66Q15.72 5.74 15.81 5.85L15.81 5.85L15.81 5.85Q15.89 5.96 15.95 6.06L15.95 6.06L15.95 6.06Q16.02 6.16 16.04 6.22L16.04 6.22L16.04 6.22Q16.07 6.29 16.07 6.29L16.07 6.29L15.36 6.83L15.36 6.83Q15.26 6.69 15.11 6.57L15.11 6.57L15.11 6.57Q14.98 6.45 14.80 6.37L14.80 6.37L14.80 6.37Q14.63 6.29 14.39 6.29L14.39 6.29L14.39 6.29Q13.94 6.29 13.64 6.41L13.64 6.41L13.64 6.41Q13.33 6.54 13.15 6.72L13.15 6.72L13.15 6.72Q13.16 6.82 13.17 6.93L13.17 6.93L13.17 6.93Q13.19 7.03 13.20 7.15L13.20 7.15L13.20 7.15Q13.20 7.27 13.20 7.39L13.20 7.39L13.20 12.10L11.38 12.10L11.38 7.34L11.38 7.34Q11.38 7.03 11.35 6.77L11.35 6.77L11.35 6.77Q11.31 6.51 11.21 6.32L11.21 6.32L11.21 6.32Q11.12 6.13 10.92 6.03L10.92 6.03L10.92 6.03Q10.72 5.94 10.42 5.94L10.42 5.94L10.28 5.94L10.28 5.52L11.66 5.52L11.66 5.52Q12.14 5.52 12.41 5.63L12.41 5.63L12.41 5.63Q12.68 5.75 12.84 6.03L12.84 6.03L12.84 6.03Q13.09 5.81 13.53 5.59L13.53 5.59L13.53 5.59Q13.97 5.38 14.60 5.38ZM18.90 3.98L18.90 3.98L18.90 3.98Q18.90 4.34 18.68 4.55L18.68 4.55L18.68 4.55Q18.45 4.76 18.13 4.76L18.13 4.76L18.13 4.76Q17.60 4.76 17.34 4.44L17.34 4.44L17.34 4.44Q17.08 4.12 17.08 3.70L17.08 3.70L17.08 3.70Q17.08 3.33 17.30 3.12L17.30 3.12L17.30 3.12Q17.53 2.91 17.85 2.91L17.85 2.91L17.85 2.91Q18.38 2.91 18.64 3.23L18.64 3.23L18.64 3.23Q18.90 3.56 18.90 3.98ZM17.22 12.10L17.22 7.34L17.22 7.34Q17.22 6.71 17.05 6.32L17.05 6.32L17.05 6.32Q16.87 5.94 16.24 5.94L16.24 5.94L16.10 5.94L16.10 5.52L17.78 5.52L17.78 5.52Q18.14 5.52 18.39 5.61L18.39 5.61L18.39 5.61Q18.63 5.70 18.78 5.91L18.78 5.91L18.78 5.91Q18.93 6.12 18.98 6.47L18.98 6.47L18.98 6.47Q19.04 6.82 19.04 7.34L19.04 7.34L19.04 12.10L17.22 12.10ZM25.19 8.81L25.19 8.81L25.19 8.81Q25.19 8.20 25.09 7.69L25.09 7.69L25.09 7.69Q25.00 7.18 24.82 6.80L24.82 6.80L24.82 6.80Q24.64 6.43 24.36 6.22L24.36 6.22L24.36 6.22Q24.08 6.01 23.72 6.01L23.72 6.01L23.72 6.01Q23.35 6.01 23.07 6.22L23.07 6.22L23.07 6.22Q22.79 6.43 22.61 6.80L22.61 6.80L22.61 6.80Q22.43 7.18 22.34 7.69L22.34 7.69L22.34 7.69Q22.25 8.20 22.25 8.81L22.25 8.81L22.25 8.81Q22.25 9.41 22.34 9.92L22.34 9.92L22.34 9.92Q22.43 10.43 22.61 10.81L22.61 10.81L22.61 10.81Q22.79 11.19 23.07 11.40L23.07 11.40L23.07 11.40Q23.35 11.61 23.72 11.61L23.72 11.61L23.72 11.61Q24.08 11.61 24.36 11.40L24.36 11.40L24.36 11.40Q24.64 11.19 24.82 10.81L24.82 10.81L24.82 10.81Q25.00 10.43 25.09 9.92L25.09 9.92L25.09 9.92Q25.19 9.41 25.19 8.81ZM20.36 8.81L20.36 8.81L20.36 8.81Q20.36 8.09 20.59 7.46L20.59 7.46L20.59 7.46Q20.82 6.83 21.25 6.37L21.25 6.37L21.25 6.37Q21.69 5.91 22.31 5.64L22.31 5.64L22.31 5.64Q22.93 5.38 23.72 5.38L23.72 5.38L23.72 5.38Q24.50 5.38 25.12 5.64L25.12 5.64L25.12 5.64Q25.75 5.91 26.18 6.37L26.18 6.37L26.18 6.37Q26.61 6.83 26.84 7.46L26.84 7.46L26.84 7.46Q27.08 8.09 27.08 8.81L27.08 8.81L27.08 8.81Q27.08 9.52 26.84 10.15L26.84 10.15L26.84 10.15Q26.61 10.78 26.18 11.24L26.18 11.24L26.18 11.24Q25.75 11.70 25.12 11.97L25.12 11.97L25.12 11.97Q24.50 12.24 23.72 12.24L23.72 12.24L23.72 12.24Q22.93 12.24 22.31 11.97L22.31 11.97L22.31 11.97Q21.69 11.70 21.25 11.24L21.25 11.24L21.25 11.24Q20.82 10.78 20.59 10.15L20.59 10.15L20.59 10.15Q20.36 9.52 20.36 8.81ZM31.71 6.08L31.71 6.08L31.71 6.08Q31.26 6.08 30.93 6.20L30.93 6.20L30.93 6.20Q30.60 6.33 30.42 6.51L30.42 6.51L30.42 6.51Q30.44 6.59 30.46 6.71L30.46 6.71L30.46 6.71Q30.49 6.80 30.51 6.94L30.51 6.94L30.51 6.94Q30.52 7.08 30.52 7.25L30.52 7.25L30.52 12.10L28.70 12.10L28.70 7.34L28.70 7.34Q28.70 7.03 28.66 6.77L28.66 6.77L28.66 6.77Q28.63 6.51 28.53 6.32L28.53 6.32L28.53 6.32Q28.43 6.13 28.24 6.03L28.24 6.03L28.24 6.03Q28.04 5.94 27.73 5.94L27.73 5.94L27.59 5.94L27.59 5.52L28.98 5.52L28.98 5.52Q29.46 5.52 29.73 5.63L29.73 5.63L29.73 5.63Q30.00 5.75 30.16 6.03L30.16 6.03L30.16 6.03Q30.28 5.92 30.46 5.80L30.46 5.80L30.46 5.80Q30.63 5.68 30.88 5.59L30.88 5.59L30.88 5.59Q31.12 5.50 31.44 5.44L31.44 5.44L31.44 5.44Q31.77 5.38 32.20 5.38L32.20 5.38L32.20 5.38Q33.52 5.38 34.19 5.99L34.19 5.99L34.19 5.99Q34.86 6.59 34.86 7.95L34.86 7.95L34.86 12.10L33.04 12.10L33.04 7.94L33.04 7.94Q33.04 6.92 32.66 6.50L32.66 6.50L32.66 6.50Q32.28 6.08 31.71 6.08Z"></path></g><defs data-v-fde0c5aa=""><!----></defs><g data-v-fde0c5aa="" id="c3df3cd3-b0b2-4841-8feb-d1a13a9bbacf" stroke="none" fill="#ffffff" transform="matrix(1.0967136910414383,0,0,1.0967136910414383,96.03137186840658,39.999994770461605)"><path clip-rule="evenodd" d="M95.75 92.664c-8.234-1.257-13.26-3.228-18.553-9.923-1.504-2.583-1.936-5.278-2.156-7.333-.994-9.232 1.91-18.642.863-27.183-1.225-9.973-8.545-18.249-16.396-23.297-9.628-6.191-21.948-6.51-33.036-6.034-2.83.124-5.501 1.37-8.233 1.897-1.065.205-5.304 1.725-6.189 1.119L2.557 5.514C17.349-.71 41.282-2.367 57.353 4.221c15.766 6.462 29.471 19.899 31.063 35.808.324 3.245.35 7.373 0 11.648-1.055 12.831-10.957 27.535-.865 34.947 2.287 1.682 9.275 2.499 8.199 6.04z"></path><path clip-rule="evenodd" d="M73.744 83.174c-6.211-.336-12.607-1-17.258 0-2.797.601-5.899 2.967-8.627 4.743C40.022 93.029 32.548 99.469 20.247 100c1.705-8.911 2.021-22.388.863-33.22 2.524-1.936 7.239-1.682 9.059-4.315-1.735-5.149-8.26-.072-11.216 1.295-1.137 3.958-1.322 8.021-.863 11.648-2.204.384-3.717 1.458-6.04 1.727-.044-8.216 2.98-15.592 5.608-22.868 2.479-6.865 5.078-12.505 9.061-15.101 6.617-4.509 20.44-5.854 28.475-3.019 5.125 1.806 9.965 6.976 12.082 11.217 4.734 9.5-.432 27.127 6.468 35.81zM27.383 34.734a.728.728 0 0 1-.317.133c-1.064.197-2.506-1.581-3.27-2.143l-4.558-3.353-5.458-4.016s5.618-2.927 9.918-3.017l2.839 8.258c.293.85 1.709 3.476.846 4.138zM30.601 33.989L27.583 21.5s2.738-.496 4.744-.456l.677 12.206-2.403.739zM35.181 32.564l.597-11.52h3.885l-2.241 11.52zM40.094 32.263l2.589-9.924 3.018.434L42 32.564zM45.638 32.263l2.621-9.096 2.621 1.33-4.297 8.067zM50.017 32.695l3.452-7.336 2.156.863-4.745 6.473zM54.33 33.989l3.451-6.471 1.727.863-4.424 5.67zM57.781 35.333l3.386-6.09 1.792 1.295-4.709 5.212zM60.37 36.361l4.316-4.529.431 1.335zM62.529 38.52l3.883-3.669 1.005.899zM64.686 39.597l3.561-2.912.42 1.456zM66.467 41.323l2.572-.647v.323l-2.363.751z"></path></g><defs data-v-fde0c5aa=""><!----></defs><g data-v-fde0c5aa="" id="9e476e4e-bc7c-4fe6-9268-7b4344790578" fill="#ffffff" transform="matrix(0.9804140207995345,0,0,0.9804140207995345,53.82138304604142,248.637001583083)"><path d="M1.75 4.65C1.75 4.03 2.11 3.08 4.21 3.08C5.91 3.08 6.69 3.82 6.80 4.75L7.88 4.75C7.80 3.36 6.68 2.10 4.21 2.10C1.89 2.10 0.73 3.15 0.73 4.66C0.73 7.84 7.07 6.69 7.07 8.96C7.07 10.05 6.09 10.60 4.52 10.60C2.91 10.60 1.61 10.05 1.54 8.71L0.45 8.71C0.59 10.37 1.71 11.59 4.45 11.59C6.73 11.59 8.12 10.64 8.12 8.92C8.12 5.68 1.75 6.80 1.75 4.65ZM22.25 7.29C22.25 6.05 23.10 5.32 24.14 5.32C25.12 5.32 25.87 6.10 25.87 7.28L25.87 11.48L26.92 11.48L26.92 7.25C26.92 5.49 25.68 4.37 24.33 4.37C22.95 4.37 22.20 5.31 21.92 5.78C21.48 4.89 20.62 4.37 19.70 4.37C18.56 4.37 17.89 4.98 17.57 5.54L17.57 4.48L16.52 4.48L16.52 11.48L17.57 11.48L17.57 7.29C17.57 6.05 18.42 5.32 19.46 5.32C20.44 5.32 21.20 6.10 21.20 7.28L21.20 11.48L22.25 11.48ZM38.63 4.37C36.58 4.37 35.24 5.98 35.24 7.98C35.24 9.98 36.58 11.59 38.63 11.59C39.79 11.59 40.61 11.12 41.13 10.36L41.13 11.48L42.18 11.48L42.18 4.48L41.13 4.48L41.13 5.61C40.61 4.86 39.79 4.37 38.63 4.37ZM38.77 10.64C37.21 10.64 36.29 9.42 36.29 7.98C36.29 6.54 37.21 5.32 38.77 5.32C40.32 5.32 41.19 6.54 41.19 7.98C41.19 9.42 40.32 10.64 38.77 10.64ZM54.63 4.37C52.89 4.37 52.19 5.73 52.05 6.20L52.05 4.48L51.00 4.48L51.00 11.48L52.05 11.48L52.05 8.40C52.05 6.86 53.00 5.42 54.57 5.42L54.70 5.42L54.70 4.37ZM64.64 11.48L64.64 5.40L66.25 5.40L66.25 4.48L64.64 4.48L64.64 1.97L63.59 1.97L63.59 4.48L62.16 4.48L62.16 5.40L63.59 5.40L63.59 11.48ZM87.33 4.37C85.29 4.37 83.94 5.98 83.94 7.98C83.94 9.98 85.29 11.59 87.33 11.59C88.49 11.59 89.32 11.12 89.84 10.36L89.84 11.48L90.89 11.48L90.89 4.48L89.84 4.48L89.84 5.61C89.32 4.86 88.49 4.37 87.33 4.37ZM87.47 10.64C85.92 10.64 84.99 9.42 84.99 7.98C84.99 6.54 85.92 5.32 87.47 5.32C89.03 5.32 89.89 6.54 89.89 7.98C89.89 9.42 89.03 10.64 87.47 10.64ZM102.14 4.37C100.34 4.37 99.40 5.11 99.40 6.37C99.40 8.93 104.06 7.84 104.06 9.59C104.06 10.54 102.84 10.70 102.27 10.70C100.91 10.70 100.38 10.00 100.31 9.28L99.22 9.28C99.29 10.51 100.31 11.59 102.26 11.59C103.99 11.59 105.11 10.85 105.11 9.49C105.11 6.86 100.45 7.95 100.45 6.27C100.45 5.59 101.02 5.26 102.12 5.26C103.29 5.26 103.74 5.75 103.82 6.36L104.89 6.36C104.76 5.33 103.99 4.37 102.14 4.37ZM115.89 4.37C114.09 4.37 113.15 5.11 113.15 6.37C113.15 8.93 117.81 7.84 117.81 9.59C117.81 10.54 116.59 10.70 116.02 10.70C114.66 10.70 114.13 10.00 114.06 9.28L112.97 9.28C113.04 10.51 114.06 11.59 116.00 11.59C117.74 11.59 118.86 10.85 118.86 9.49C118.86 6.86 114.20 7.95 114.20 6.27C114.20 5.59 114.77 5.26 115.86 5.26C117.04 5.26 117.49 5.75 117.57 6.36L118.64 6.36C118.51 5.33 117.74 4.37 115.89 4.37ZM127.20 11.48L128.25 11.48L128.25 4.48L127.20 4.48ZM127.16 1.93L127.16 3.30L128.30 3.30L128.30 1.93ZM139.51 4.37C137.70 4.37 136.77 5.11 136.77 6.37C136.77 8.93 141.43 7.84 141.43 9.59C141.43 10.54 140.21 10.70 139.64 10.70C138.28 10.70 137.75 10.00 137.68 9.28L136.58 9.28C136.65 10.51 137.68 11.59 139.62 11.59C141.36 11.59 142.48 10.85 142.48 9.49C142.48 6.86 137.82 7.95 137.82 6.27C137.82 5.59 138.39 5.26 139.48 5.26C140.66 5.26 141.11 5.75 141.19 6.36L142.25 6.36C142.13 5.33 141.36 4.37 139.51 4.37ZM152.63 11.48L152.63 5.40L154.24 5.40L154.24 4.48L152.63 4.48L152.63 1.97L151.58 1.97L151.58 4.48L150.15 4.48L150.15 5.40L151.58 5.40L151.58 11.48ZM165.20 4.37C163.16 4.37 161.81 5.98 161.81 7.98C161.81 9.98 163.16 11.59 165.20 11.59C166.36 11.59 167.19 11.12 167.71 10.36L167.71 11.48L168.76 11.48L168.76 4.48L167.71 4.48L167.71 5.61C167.19 4.86 166.36 4.37 165.20 4.37ZM165.34 10.64C163.79 10.64 162.86 9.42 162.86 7.98C162.86 6.54 163.79 5.32 165.34 5.32C166.89 5.32 167.76 6.54 167.76 7.98C167.76 9.42 166.89 10.64 165.34 10.64ZM177.58 4.48L177.58 11.48L178.63 11.48L178.63 7.45C178.63 6.19 179.58 5.32 180.74 5.32C181.89 5.32 182.70 6.16 182.70 7.43L182.70 11.48L183.75 11.48L183.75 7.41C183.75 5.42 182.39 4.37 180.95 4.37C179.82 4.37 179.13 4.90 178.63 5.57L178.63 4.48ZM194.14 11.48L194.14 5.40L195.75 5.40L195.75 4.48L194.14 4.48L194.14 1.97L193.09 1.97L193.09 4.48L191.66 4.48L191.66 5.40L193.09 5.40L193.09 11.48Z"></path></g></svg>