<svg data-v-423bf9ae="" xmlns="http://www.w3.org/2000/svg" viewBox="0 0 55.982890013343045 60" class="icon"><!----><!----><!----><!----><g data-v-423bf9ae="" id="5b42c621-147c-4f50-99f7-3465b80683fb" transform="matrix(0.6000000457763707,0,0,0.6000000457763707,-1.5342006321445645,-0.0000019073488495280344)" stroke="none" fill="black"><path clip-rule="evenodd" d="M95.75 92.664c-8.234-1.257-13.26-3.228-18.553-9.923-1.504-2.583-1.936-5.278-2.156-7.333-.994-9.232 1.91-18.642.863-27.183-1.225-9.973-8.545-18.249-16.396-23.297-9.628-6.191-21.948-6.51-33.036-6.034-2.83.124-5.501 1.37-8.233 1.897-1.065.205-5.304 1.725-6.189 1.119L2.557 5.514C17.349-.71 41.282-2.367 57.353 4.221c15.766 6.462 29.471 19.899 31.063 35.808.324 3.245.35 7.373 0 11.648-1.055 12.831-10.957 27.535-.865 34.947 2.287 1.682 9.275 2.499 8.199 6.04z"></path><path clip-rule="evenodd" d="M73.744 83.174c-6.211-.336-12.607-1-17.258 0-2.797.601-5.899 2.967-8.627 4.743C40.022 93.029 32.548 99.469 20.247 100c1.705-8.911 2.021-22.388.863-33.22 2.524-1.936 7.239-1.682 9.059-4.315-1.735-5.149-8.26-.072-11.216 1.295-1.137 3.958-1.322 8.021-.863 11.648-2.204.384-3.717 1.458-6.04 1.727-.044-8.216 2.98-15.592 5.608-22.868 2.479-6.865 5.078-12.505 9.061-15.101 6.617-4.509 20.44-5.854 28.475-3.019 5.125 1.806 9.965 6.976 12.082 11.217 4.734 9.5-.432 27.127 6.468 35.81zM27.383 34.734a.728.728 0 0 1-.317.133c-1.064.197-2.506-1.581-3.27-2.143l-4.558-3.353-5.458-4.016s5.618-2.927 9.918-3.017l2.839 8.258c.293.85 1.709 3.476.846 4.138zM30.601 33.989L27.583 21.5s2.738-.496 4.744-.456l.677 12.206-2.403.739zM35.181 32.564l.597-11.52h3.885l-2.241 11.52zM40.094 32.263l2.589-9.924 3.018.434L42 32.564zM45.638 32.263l2.621-9.096 2.621 1.33-4.297 8.067zM50.017 32.695l3.452-7.336 2.156.863-4.745 6.473zM54.33 33.989l3.451-6.471 1.727.863-4.424 5.67zM57.781 35.333l3.386-6.09 1.792 1.295-4.709 5.212zM60.37 36.361l4.316-4.529.431 1.335zM62.529 38.52l3.883-3.669 1.005.899zM64.686 39.597l3.561-2.912.42 1.456zM66.467 41.323l2.572-.647v.323l-2.363.751z"></path></g><!----></svg>